<mxfile host="65bd71144e">
    <diagram id="9a6lklp4S5HPCMqLJssH" name="第 1 页">
        <mxGraphModel dx="1097" dy="560" grid="1" gridSize="10" guides="1" tooltips="1" connect="1" arrows="1" fold="1" page="1" pageScale="1" pageWidth="827" pageHeight="1169" math="0" shadow="0">
            <root>
                <mxCell id="0"/>
                <mxCell id="1" parent="0"/>
                <mxCell id="20" value="" style="rounded=0;whiteSpace=wrap;html=1;" parent="1" vertex="1">
                    <mxGeometry x="40" y="60" width="740" height="490" as="geometry"/>
                </mxCell>
                <mxCell id="2" value="" style="rounded=0;whiteSpace=wrap;html=1;" parent="1" vertex="1">
                    <mxGeometry x="91" y="220" width="630" height="240" as="geometry"/>
                </mxCell>
                <mxCell id="3" value="pipline 创建页面" style="text;html=1;strokeColor=none;fillColor=none;align=center;verticalAlign=middle;whiteSpace=wrap;rounded=0;" parent="1" vertex="1">
                    <mxGeometry x="351" y="20" width="126" height="30" as="geometry"/>
                </mxCell>
                <mxCell id="5" value="Job" style="rounded=0;whiteSpace=wrap;html=1;" parent="1" vertex="1">
                    <mxGeometry x="111" y="290" width="120" height="30" as="geometry"/>
                </mxCell>
                <mxCell id="6" value="Job" style="rounded=0;whiteSpace=wrap;html=1;" parent="1" vertex="1">
                    <mxGeometry x="111" y="330" width="120" height="30" as="geometry"/>
                </mxCell>
                <mxCell id="7" value="Job" style="rounded=0;whiteSpace=wrap;html=1;" parent="1" vertex="1">
                    <mxGeometry x="271" y="290" width="120" height="30" as="geometry"/>
                </mxCell>
                <mxCell id="8" value="Job" style="rounded=0;whiteSpace=wrap;html=1;" parent="1" vertex="1">
                    <mxGeometry x="271" y="330" width="120" height="30" as="geometry"/>
                </mxCell>
                <mxCell id="9" value="Job" style="rounded=0;whiteSpace=wrap;html=1;" parent="1" vertex="1">
                    <mxGeometry x="271" y="370" width="120" height="30" as="geometry"/>
                </mxCell>
                <mxCell id="10" value="Job" style="rounded=0;whiteSpace=wrap;html=1;" parent="1" vertex="1">
                    <mxGeometry x="421" y="290" width="120" height="30" as="geometry"/>
                </mxCell>
                <mxCell id="11" value="Job" style="rounded=0;whiteSpace=wrap;html=1;" parent="1" vertex="1">
                    <mxGeometry x="421" y="330" width="120" height="30" as="geometry"/>
                </mxCell>
                <mxCell id="12" value="Job" style="rounded=0;whiteSpace=wrap;html=1;" parent="1" vertex="1">
                    <mxGeometry x="421" y="370" width="120" height="30" as="geometry"/>
                </mxCell>
                <mxCell id="13" value="" style="endArrow=none;html=1;entryX=0.25;entryY=0;entryDx=0;entryDy=0;exitX=0.25;exitY=1;exitDx=0;exitDy=0;" parent="1" source="2" target="2" edge="1">
                    <mxGeometry width="50" height="50" relative="1" as="geometry">
                        <mxPoint x="261" y="320" as="sourcePoint"/>
                        <mxPoint x="311" y="270" as="targetPoint"/>
                    </mxGeometry>
                </mxCell>
                <mxCell id="14" value="Stage A&lt;br&gt;(串行)" style="text;html=1;strokeColor=none;fillColor=none;align=center;verticalAlign=middle;whiteSpace=wrap;rounded=0;" parent="1" vertex="1">
                    <mxGeometry x="121" y="240" width="80" height="30" as="geometry"/>
                </mxCell>
                <mxCell id="16" value="" style="endArrow=none;html=1;entryX=0.5;entryY=0;entryDx=0;entryDy=0;exitX=0.5;exitY=1;exitDx=0;exitDy=0;" parent="1" source="2" target="2" edge="1">
                    <mxGeometry width="50" height="50" relative="1" as="geometry">
                        <mxPoint x="406" y="450" as="sourcePoint"/>
                        <mxPoint x="451" y="330" as="targetPoint"/>
                    </mxGeometry>
                </mxCell>
                <mxCell id="17" value="Stage B&lt;br&gt;并行" style="text;html=1;strokeColor=none;fillColor=none;align=center;verticalAlign=middle;whiteSpace=wrap;rounded=0;" parent="1" vertex="1">
                    <mxGeometry x="301" y="230" width="60" height="30" as="geometry"/>
                </mxCell>
                <mxCell id="19" value="Stage C&lt;br&gt;并行" style="text;html=1;strokeColor=none;fillColor=none;align=center;verticalAlign=middle;whiteSpace=wrap;rounded=0;" parent="1" vertex="1">
                    <mxGeometry x="451" y="230" width="60" height="30" as="geometry"/>
                </mxCell>
                <mxCell id="72" style="edgeStyle=orthogonalEdgeStyle;html=1;exitX=0.5;exitY=1;exitDx=0;exitDy=0;entryX=0.485;entryY=-0.007;entryDx=0;entryDy=0;entryPerimeter=0;" parent="1" source="26" target="71" edge="1">
                    <mxGeometry relative="1" as="geometry">
                        <Array as="points">
                            <mxPoint x="171" y="570"/>
                            <mxPoint x="403" y="570"/>
                        </Array>
                    </mxGeometry>
                </mxCell>
                <mxCell id="26" value="+ 新增" style="rounded=0;whiteSpace=wrap;html=1;" parent="1" vertex="1">
                    <mxGeometry x="111" y="380" width="120" height="30" as="geometry"/>
                </mxCell>
                <mxCell id="24" value="+" style="ellipse;whiteSpace=wrap;html=1;aspect=fixed;" parent="1" vertex="1">
                    <mxGeometry x="707" y="320" width="30" height="30" as="geometry"/>
                </mxCell>
                <mxCell id="32" value="" style="endArrow=none;html=1;entryX=0.75;entryY=0;entryDx=0;entryDy=0;exitX=0.75;exitY=1;exitDx=0;exitDy=0;" parent="1" source="2" target="2" edge="1">
                    <mxGeometry width="50" height="50" relative="1" as="geometry">
                        <mxPoint x="551" y="280" as="sourcePoint"/>
                        <mxPoint x="601" y="230" as="targetPoint"/>
                    </mxGeometry>
                </mxCell>
                <mxCell id="33" value="Job" style="rounded=0;whiteSpace=wrap;html=1;" parent="1" vertex="1">
                    <mxGeometry x="581" y="290" width="120" height="30" as="geometry"/>
                </mxCell>
                <mxCell id="34" value="Job" style="rounded=0;whiteSpace=wrap;html=1;" parent="1" vertex="1">
                    <mxGeometry x="581" y="330" width="120" height="30" as="geometry"/>
                </mxCell>
                <mxCell id="35" value="Job" style="rounded=0;whiteSpace=wrap;html=1;" parent="1" vertex="1">
                    <mxGeometry x="581" y="370" width="120" height="30" as="geometry"/>
                </mxCell>
                <mxCell id="36" value="Stage D&lt;br&gt;串行" style="text;html=1;strokeColor=none;fillColor=none;align=center;verticalAlign=middle;whiteSpace=wrap;rounded=0;" parent="1" vertex="1">
                    <mxGeometry x="611" y="230" width="60" height="30" as="geometry"/>
                </mxCell>
                <mxCell id="38" value="保存" style="rounded=0;whiteSpace=wrap;html=1;" parent="1" vertex="1">
                    <mxGeometry x="632.5" y="480" width="90" height="40" as="geometry"/>
                </mxCell>
                <mxCell id="39" value="" style="rounded=0;whiteSpace=wrap;html=1;" parent="1" vertex="1">
                    <mxGeometry x="91" y="90" width="619" height="100" as="geometry"/>
                </mxCell>
                <mxCell id="40" value="流程编排 ｜ xxx" style="text;html=1;strokeColor=none;fillColor=none;align=center;verticalAlign=middle;whiteSpace=wrap;rounded=0;" parent="1" vertex="1">
                    <mxGeometry x="91" y="190" width="119" height="30" as="geometry"/>
                </mxCell>
                <mxCell id="41" value="名称" style="text;html=1;strokeColor=none;fillColor=none;align=center;verticalAlign=middle;whiteSpace=wrap;rounded=0;" parent="1" vertex="1">
                    <mxGeometry x="111" y="100" width="60" height="30" as="geometry"/>
                </mxCell>
                <mxCell id="42" value="Logo" style="text;html=1;strokeColor=none;fillColor=none;align=center;verticalAlign=middle;whiteSpace=wrap;rounded=0;" parent="1" vertex="1">
                    <mxGeometry x="111" y="150" width="60" height="30" as="geometry"/>
                </mxCell>
                <mxCell id="43" value="描述" style="text;html=1;strokeColor=none;fillColor=none;align=center;verticalAlign=middle;whiteSpace=wrap;rounded=0;" parent="1" vertex="1">
                    <mxGeometry x="201" y="110" width="489" height="70" as="geometry"/>
                </mxCell>
                <mxCell id="70" value="取消" style="rounded=0;whiteSpace=wrap;html=1;" parent="1" vertex="1">
                    <mxGeometry x="522.5" y="480" width="90" height="40" as="geometry"/>
                </mxCell>
                <mxCell id="71" value="" style="rounded=0;whiteSpace=wrap;html=1;" parent="1" vertex="1">
                    <mxGeometry x="44" y="620" width="740" height="320" as="geometry"/>
                </mxCell>
                <mxCell id="73" value="Job 选择弹窗" style="text;html=1;strokeColor=none;fillColor=none;align=center;verticalAlign=middle;whiteSpace=wrap;rounded=0;" parent="1" vertex="1">
                    <mxGeometry x="44" y="590" width="106" height="30" as="geometry"/>
                </mxCell>
                <mxCell id="75" value="Logo" style="rounded=0;whiteSpace=wrap;html=1;" parent="1" vertex="1">
                    <mxGeometry x="121" y="720" width="79" height="50" as="geometry"/>
                </mxCell>
                <mxCell id="76" value="名称&lt;br&gt;描述" style="rounded=0;whiteSpace=wrap;html=1;" parent="1" vertex="1">
                    <mxGeometry x="201" y="720" width="199" height="50" as="geometry"/>
                </mxCell>
                <mxCell id="77" value="Logo" style="rounded=0;whiteSpace=wrap;html=1;" parent="1" vertex="1">
                    <mxGeometry x="451" y="720" width="79" height="50" as="geometry"/>
                </mxCell>
                <mxCell id="78" value="名称&lt;br&gt;描述" style="rounded=0;whiteSpace=wrap;html=1;" parent="1" vertex="1">
                    <mxGeometry x="531" y="720" width="199" height="50" as="geometry"/>
                </mxCell>
                <mxCell id="79" value="Logo" style="rounded=0;whiteSpace=wrap;html=1;" parent="1" vertex="1">
                    <mxGeometry x="121" y="790" width="79" height="50" as="geometry"/>
                </mxCell>
                <mxCell id="80" value="名称&lt;br&gt;描述" style="rounded=0;whiteSpace=wrap;html=1;" parent="1" vertex="1">
                    <mxGeometry x="201" y="790" width="199" height="50" as="geometry"/>
                </mxCell>
                <mxCell id="81" value="Logo" style="rounded=0;whiteSpace=wrap;html=1;" parent="1" vertex="1">
                    <mxGeometry x="451" y="790" width="79" height="50" as="geometry"/>
                </mxCell>
                <mxCell id="82" value="名称&lt;br&gt;描述" style="rounded=0;whiteSpace=wrap;html=1;" parent="1" vertex="1">
                    <mxGeometry x="531" y="790" width="199" height="50" as="geometry"/>
                </mxCell>
                <mxCell id="83" value="Logo" style="rounded=0;whiteSpace=wrap;html=1;" parent="1" vertex="1">
                    <mxGeometry x="121" y="860" width="79" height="50" as="geometry"/>
                </mxCell>
                <mxCell id="84" value="名称&lt;br&gt;描述" style="rounded=0;whiteSpace=wrap;html=1;" parent="1" vertex="1">
                    <mxGeometry x="201" y="860" width="199" height="50" as="geometry"/>
                </mxCell>
                <mxCell id="85" value="Logo" style="rounded=0;whiteSpace=wrap;html=1;" parent="1" vertex="1">
                    <mxGeometry x="451" y="860" width="79" height="50" as="geometry"/>
                </mxCell>
                <mxCell id="86" value="名称&lt;br&gt;描述" style="rounded=0;whiteSpace=wrap;html=1;" parent="1" vertex="1">
                    <mxGeometry x="531" y="860" width="199" height="50" as="geometry"/>
                </mxCell>
                <mxCell id="88" value="全部&amp;lt;分类&amp;gt;" style="rounded=0;whiteSpace=wrap;html=1;" parent="1" vertex="1">
                    <mxGeometry x="220" y="640" width="80" height="60" as="geometry"/>
                </mxCell>
                <mxCell id="89" value="Job名称或者描述 进行Job搜索" style="rounded=0;whiteSpace=wrap;html=1;" parent="1" vertex="1">
                    <mxGeometry x="300" y="640" width="340" height="60" as="geometry"/>
                </mxCell>
            </root>
        </mxGraphModel>
    </diagram>
</mxfile>